<svg xmlns="http://www.w3.org/2000/svg" width="145.776" height="29.193" viewBox="0 0 145.776 29.193">
  <g id="ANTENNA_logo_WHITE" data-name="ANTENNA logo_WHITE" transform="translate(-3.025 -13.768)">
    <path id="Path_1" data-name="Path 1" d="M11.136,18.162a1.506,1.506,0,1,1,1.506,1.506A1.507,1.507,0,0,1,11.136,18.162ZM137.915,35.525a1.506,1.506,0,1,0,1.506-1.506A1.507,1.507,0,0,0,137.915,35.525ZM15.989,16.765a1.412,1.412,0,0,1,0,2.8.541.541,0,0,0,.078,1.076.472.472,0,0,0,.078,0,2.5,2.5,0,0,0,0-4.948.546.546,0,0,0-.156,1.081Zm2.005-1.91a3.342,3.342,0,0,1,0,6.615.541.541,0,0,0,.078,1.076.472.472,0,0,0,.078,0,4.43,4.43,0,0,0,0-8.768.54.54,0,0,0-.612.46A.546.546,0,0,0,17.995,14.855ZM9.079,20.637a.472.472,0,0,0,.078,0,.546.546,0,0,0,.538-.464.54.54,0,0,0-.46-.612,1.412,1.412,0,0,1,0-2.8A.541.541,0,1,0,9.083,15.7a2.5,2.5,0,0,0,0,4.94Zm-2.005,1.91a.472.472,0,0,0,.078,0,.546.546,0,0,0,.538-.464.54.54,0,0,0-.46-.612,3.342,3.342,0,0,1,0-6.615.541.541,0,0,0-.152-1.072,4.426,4.426,0,0,0,0,8.76ZM43.557,41.793V22.256a1.067,1.067,0,0,0-.334-.807h0a1.17,1.17,0,0,0-1.6,0,1.093,1.093,0,0,0-.317.807V38.885L28.1,21.531a1.117,1.117,0,0,0-1.992.721V41.789a1.084,1.084,0,0,0,1.124,1.124,1.123,1.123,0,0,0,.794-.317,1.074,1.074,0,0,0,.334-.807V25.19l13.23,17.35a.831.831,0,0,0,.382.3,1.328,1.328,0,0,0,.46.087,1.123,1.123,0,0,0,.794-.317A1.09,1.09,0,0,0,43.557,41.793Zm12.631.794a1.1,1.1,0,0,0,.317-.794v-18.6h6.572a1.038,1.038,0,0,0,.755-.291,1,1,0,0,0,.291-.725,1,1,0,0,0-1.046-1.046H47.711a1,1,0,0,0-1.046,1.046.988.988,0,0,0,.291.725,1.031,1.031,0,0,0,.755.291h6.541v18.6a1.133,1.133,0,0,0,1.936.794ZM81.391,23.3a1.123,1.123,0,0,0,.794-.317,1.015,1.015,0,0,0,.334-.755,1.026,1.026,0,0,0-.334-.794,1.149,1.149,0,0,0-.794-.3H68.356a1.084,1.084,0,0,0-1.124,1.124V41.793a1.084,1.084,0,0,0,1.124,1.124H81.391a1.13,1.13,0,0,0,.794-.3,1.065,1.065,0,0,0,0-1.55,1.1,1.1,0,0,0-.794-.317H69.484V33.081H78.14a1.1,1.1,0,0,0,.807-.317,1.061,1.061,0,0,0,.317-.781,1.078,1.078,0,0,0-.317-.781,1.093,1.093,0,0,0-.807-.317H69.484V23.3Zm6.2,19.616a1.123,1.123,0,0,0,.794-.317,1.074,1.074,0,0,0,.334-.807V25.19l13.23,17.35a.831.831,0,0,0,.382.3,1.328,1.328,0,0,0,.46.087,1.123,1.123,0,0,0,.794-.317,1.074,1.074,0,0,0,.334-.807V22.256a1.067,1.067,0,0,0-.334-.807,1.17,1.17,0,0,0-1.6,0,1.093,1.093,0,0,0-.317.807V38.885L88.457,21.535a1.117,1.117,0,0,0-1.992.721V41.793a1.1,1.1,0,0,0,.317.807A1.079,1.079,0,0,0,87.589,42.917Zm38.124-21.79a1.084,1.084,0,0,0-1.124,1.124V38.88l-13.209-17.35a1.117,1.117,0,0,0-1.992.721V41.789a1.084,1.084,0,0,0,1.124,1.124,1.123,1.123,0,0,0,.794-.317,1.074,1.074,0,0,0,.334-.807V25.19l13.23,17.35a.831.831,0,0,0,.382.3,1.328,1.328,0,0,0,.46.087,1.123,1.123,0,0,0,.794-.317,1.074,1.074,0,0,0,.334-.807V22.256a1.067,1.067,0,0,0-.334-.807A1.108,1.108,0,0,0,125.714,21.127Zm6.068,21.617a1.1,1.1,0,0,0,.421-.521l7.227-17.4,7.175,17.4a1.226,1.226,0,0,0,.447.517,1.125,1.125,0,0,0,.621.174,1.123,1.123,0,0,0,1.016-1.589l-8.2-19.425a1.1,1.1,0,0,0-1.068-.777,1.113,1.113,0,0,0-1.094.777L130.163,41.3a1.18,1.18,0,0,0,.056,1.068,1,1,0,0,0,.955.551A1.112,1.112,0,0,0,131.782,42.744ZM21.663,42.275a2.4,2.4,0,0,1-2.774.421l-5.1-2.557a6.872,6.872,0,0,1-1.033-.634,6.832,6.832,0,0,1-1.029.634L6.631,42.7a2.448,2.448,0,0,1-1.1.265,2.409,2.409,0,0,1-1.671-.69,2.749,2.749,0,0,1-.6-3.086l.017-.039,8.59-17.489a1,1,0,0,1,.894-.56.983.983,0,0,1,.894.56l8.6,17.506.009.022A2.735,2.735,0,0,1,21.663,42.275Zm-4.488-9.007L15.807,32.4c.022.217.035.438.035.66l1.341,2.522,1.263.278Zm-1.966-4,.378,1.888c.043.174.082.347.113.521l1,.629Zm-2.63-3.138-.712,4.414,1.289-1.532Zm-1.563,9.7,1.71-.812-.577-3.941-.46.543Zm.417-6.107-.53.247-.751,3.117.807-.425Zm-1.346.009,1.454-.681.547-3.39ZM8.6,32.769l.92.564.734-3.06-.56.26ZM7.39,35.217l1.8-.521.191-.786-1.033-.634Zm.117.551-.087,2.005,1.194-.681.425-1.771ZM5.637,38.789,6.843,38.1l.082-1.94ZM6.7,40.469l-.512-1.346-.985.56-.152.308a.769.769,0,0,0,.165.864.441.441,0,0,0,.538.091Zm1.736-2.626-1.758,1L7.2,40.217l.751-.378Zm1.532.99.881-5.478-.868.46-1.367,5.7Zm3.03-2.422-.061.009-.122-.82-1.906.9-.326,2.018.269-.135A5.347,5.347,0,0,0,12.994,36.411Zm.69-4.783-.013-.052L13.3,29.722l-.664.786.755,5.148A6.233,6.233,0,0,0,13.684,31.627Zm1.871,7.2-.421-2.3a7.937,7.937,0,0,1-.946,1.58,4.518,4.518,0,0,0,.486.278Zm.291-1.519.833-1.48-.89-1.676a7.869,7.869,0,0,1-.273,1.346ZM18.9,39.275,16.51,37.27l-.508.9.178.968,2.526,1.267Zm.317-1.853-.447-.912-1.623-.36-.347.621,2.218,1.862Zm1.263,2.57-.842-1.71-.408,2.392.543.273a.44.44,0,0,0,.538-.091h0A.763.763,0,0,0,20.478,39.992Z" transform="translate(0)" fill="#fff"/>
  </g>
</svg>
