<svg xmlns="http://www.w3.org/2000/svg" xmlns:xlink="http://www.w3.org/1999/xlink" width="73" height="73" viewBox="0 0 73 73">
  <defs>
    <linearGradient id="linear-gradient" x1="1.126" y1="-0.258" x2="-0.292" y2="1.294" gradientUnits="objectBoundingBox">
      <stop offset="0" stop-color="#afcd87"/>
      <stop offset="1" stop-color="#004d74"/>
    </linearGradient>
  </defs>
  <g id="Objectives-2" transform="translate(-766.905 -1823)">
    <rect id="Rectangle_4050" data-name="Rectangle 4050" width="73" height="73" rx="10" transform="translate(766.905 1823)" fill="url(#linear-gradient)"/>
    <g id="Group_15988" data-name="Group 15988" transform="translate(772.356 869.615)">
      <path id="Path_47467" data-name="Path 47467" d="M22.229,971.384a.518.518,0,0,0-.273.128,5.708,5.708,0,0,0-1.494,2.618,5.687,5.687,0,0,0-2.635,1.526.532.532,0,0,0,0,.691,5.692,5.692,0,0,0,2.635,1.526,5.708,5.708,0,0,0,1.494,2.618.534.534,0,0,0,.707,0,5.708,5.708,0,0,0,1.494-2.618,5.692,5.692,0,0,0,2.635-1.526.532.532,0,0,0,0-.691,5.687,5.687,0,0,0-2.635-1.526,5.708,5.708,0,0,0-1.494-2.618A.522.522,0,0,0,22.229,971.384Zm17.479,0a.518.518,0,0,0-.273.128,5.708,5.708,0,0,0-1.494,2.618,5.687,5.687,0,0,0-2.635,1.526.532.532,0,0,0,0,.691,5.692,5.692,0,0,0,2.635,1.526,5.708,5.708,0,0,0,1.494,2.618.534.534,0,0,0,.707,0,5.708,5.708,0,0,0,1.494-2.618,5.692,5.692,0,0,0,2.635-1.526.532.532,0,0,0,0-.691,5.687,5.687,0,0,0-2.635-1.526,5.708,5.708,0,0,0-1.494-2.618.522.522,0,0,0-.434-.128Zm-17.4,1.349a4.88,4.88,0,0,1,.964,1.927.526.526,0,0,0,.386.385,1.211,1.211,0,1,1,0,1.927.525.525,0,0,0-.386.369,4.88,4.88,0,0,1-.964,1.927,4.88,4.88,0,0,1-.964-1.927.525.525,0,0,0-.386-.369,1.211,1.211,0,1,1,0-1.927.526.526,0,0,0,.386-.385A4.88,4.88,0,0,1,22.309,972.733Zm17.479,0a4.88,4.88,0,0,1,.964,1.927.526.526,0,0,0,.386.385,1.211,1.211,0,1,1,0,1.927.525.525,0,0,0-.386.369,4.88,4.88,0,0,1-.964,1.927,4.88,4.88,0,0,1-.964-1.927.525.525,0,0,0-.386-.369,1.211,1.211,0,1,1,0-1.927.526.526,0,0,0,.386-.385A4.88,4.88,0,0,1,39.789,972.733Zm-8.82,5.845a.517.517,0,0,0-.273.128A7.025,7.025,0,0,0,28.832,982a7.043,7.043,0,0,0-3.293,1.879.532.532,0,0,0,0,.691,7.046,7.046,0,0,0,3.293,1.879A7.025,7.025,0,0,0,30.7,989.74a.533.533,0,0,0,.707,0,7.025,7.025,0,0,0,1.864-3.292,7.046,7.046,0,0,0,3.293-1.879.532.532,0,0,0,0-.691A7.043,7.043,0,0,0,33.266,982a7.025,7.025,0,0,0-1.864-3.292A.522.522,0,0,0,30.969,978.579Zm-16.756,1.06a2.162,2.162,0,0,0-2.185,1.943c0,.011,0,.021,0,.032L11,992.92c0,.016,0,.032,0,.048a5.171,5.171,0,0,0,1.671,3.421.422.422,0,0,0,.032.032c2.266,2.17,5.221,4.19,7.021,6.472l-.5,4.914a.517.517,0,1,0,1.028.112l.514-5.139a.52.52,0,0,0-.112-.369c-1.938-2.54-5-4.6-7.213-6.713l-.032-.032A4.3,4.3,0,0,1,12.028,993v-.032c0-.006,0-.011,0-.016l1.028-11.209c.347-2.186,2.646-.675,2.57-.161,0,.016,0,.032,0,.048l-.514,9.764a.522.522,0,0,0,.177.418l4.627,4.111a.514.514,0,1,0,.675-.771l-3.941-3.507c0-.177,0-.363,0-.717a2.362,2.362,0,0,1,.964-1.879,1.422,1.422,0,0,1,1.8.209v-.016c2.675,2.213,4.322,3.349,5.43,4.127a7.777,7.777,0,0,1,2.185,1.943c0,.005,0,.011,0,.016.861,1.173.927,3.774.932,4.834v7.709a.514.514,0,1,0,1.028,0v-7.709c0-1.031.107-3.766-1.125-5.444a8.885,8.885,0,0,0-2.426-2.184c-1.116-.784-2.734-1.888-5.382-4.079a2.55,2.55,0,0,0-2.988-.273,2.9,2.9,0,0,0-.8.883l.386-7.339v-.016c0-.011,0-.021,0-.032.125-1.091-.892-1.881-2.008-2.024a2.891,2.891,0,0,0-.434-.016Zm33.673,0a2.891,2.891,0,0,0-.434.016c-1.116.142-2.133.932-2.008,2.024q.186,3.694.386,7.387a2.9,2.9,0,0,0-.8-.883,2.55,2.55,0,0,0-2.988.273c-2.648,2.191-4.266,3.3-5.382,4.079a8.883,8.883,0,0,0-2.426,2.184c-1.231,1.678-1.121,4.414-1.125,5.444v7.709a.514.514,0,1,0,1.028,0v-7.709c0-1.059.071-3.661.932-4.834,0-.005,0-.011,0-.016a7.777,7.777,0,0,1,2.185-1.943c1.108-.779,2.756-1.914,5.43-4.127v.016a1.422,1.422,0,0,1,1.8-.209,2.362,2.362,0,0,1,.964,1.879c0,.443.005.375.005.717l-3.941,3.507a.514.514,0,1,0,.675.771l4.627-4.111a.522.522,0,0,0,.177-.417c-.169-3.27-.35-6.546-.514-9.812-.075-.514,2.223-2.025,2.57.161l1.028,11.209V993a4.3,4.3,0,0,1-1.382,2.666l-.032.032c-2.213,2.111-5.276,4.172-7.213,6.713a.519.519,0,0,0-.112.369l.514,5.139a.517.517,0,1,0,1.028-.112l-.5-4.914c1.8-2.282,4.754-4.3,7.021-6.472l.032-.032a5.17,5.17,0,0,0,1.671-3.421c0-.016,0-.032,0-.048-.34-3.779-.694-7.561-1.028-11.338a2.162,2.162,0,0,0-2.185-1.943Zm-16.837.289a6.185,6.185,0,0,1,1.333,2.586.526.526,0,0,0,.386.385,1.639,1.639,0,1,1,0,2.65.526.526,0,0,0-.386.385,6.184,6.184,0,0,1-1.333,2.585,6.184,6.184,0,0,1-1.333-2.585.526.526,0,0,0-.386-.385,1.639,1.639,0,1,1,0-2.65.526.526,0,0,0,.386-.385,6.185,6.185,0,0,1,1.333-2.586Z" fill="#fff" stroke="#fff" stroke-width="0.4"/>
    </g>
  </g>
</svg>
