<svg xmlns="http://www.w3.org/2000/svg" xmlns:xlink="http://www.w3.org/1999/xlink" width="73" height="73" viewBox="0 0 73 73">
  <defs>
    <linearGradient id="linear-gradient" x1="1.126" y1="-0.258" x2="-0.292" y2="1.294" gradientUnits="objectBoundingBox">
      <stop offset="0" stop-color="#afcd87"/>
      <stop offset="1" stop-color="#004d74"/>
    </linearGradient>
  </defs>
  <g id="Objectives-5" transform="translate(-112.095 -2311)">
    <rect id="Rectangle_4056" data-name="Rectangle 4056" width="73" height="73" rx="10" transform="translate(112.095 2311)" fill="url(#linear-gradient)"/>
    <g id="Group_15999" data-name="Group 15999" transform="translate(-1320.823 131.249)">
      <g id="Group_15996" data-name="Group 15996" transform="translate(1448.786 2194.839)">
        <path id="Path_47480" data-name="Path 47480" d="M12.22,3.6a.549.549,0,0,0,0-1.1H4.331A1.857,1.857,0,0,0,2.5,4.381v8.1a.535.535,0,1,0,1.069,0v-8.1s0,0,0-.005L4.326,3.6H12.22Z" transform="translate(-2.5 -2.502)" fill="#fff" stroke="#fff" stroke-width="0.4"/>
        <path id="Path_47481" data-name="Path 47481" d="M9.457,1.094a.534.534,0,0,0,.52-.547A.534.534,0,0,0,9.457,0H1.781A1.83,1.83,0,0,0,0,1.872V9.937a.534.534,0,0,0,.52.547.534.534,0,0,0,.52-.547V1.872s0,0,0-.005l.736-.772H9.457Z" transform="translate(0 41.564) rotate(-90)" fill="#fff" stroke="#fff" stroke-width="0.4"/>
        <path id="Path_47484" data-name="Path 47484" d="M9.457,1.094a.534.534,0,0,0,.52-.547A.534.534,0,0,0,9.457,0H1.781A1.83,1.83,0,0,0,0,1.872V9.937a.534.534,0,0,0,.52.547.534.534,0,0,0,.52-.547V1.872s0,0,0-.005l.736-.772H9.457Z" transform="translate(41.263 41.824) rotate(180)" fill="#fff" stroke="#fff" stroke-width="0.4"/>
        <path id="Path_47490" data-name="Path 47490" d="M0,0,9.015,8.739" transform="translate(40.025 1.09) rotate(90)" fill="none" stroke="#fff" stroke-width="1.5"/>
        <path id="Path_47491" data-name="Path 47491" d="M0,8.739,9.015,0" transform="translate(9.875 1.09) rotate(90)" fill="none" stroke="#fff" stroke-width="1.5"/>
        <path id="Path_47492" data-name="Path 47492" d="M0,0,9.015,8.739" transform="translate(1.516 40.255) rotate(-90)" fill="none" stroke="#fff" stroke-width="1.5"/>
        <path id="Path_47493" data-name="Path 47493" d="M0,9.078,9.37,0" transform="translate(30.779 40.611) rotate(-90)" fill="none" stroke="#fff" stroke-width="1.5"/>
        <path id="Path_47485" data-name="Path 47485" d="M9.457,1.094a.534.534,0,0,0,.52-.547A.534.534,0,0,0,9.457,0H1.781A1.83,1.83,0,0,0,0,1.872V9.937a.534.534,0,0,0,.52.547.534.534,0,0,0,.52-.547V1.872s0,0,0-.005l.736-.772H9.457Z" transform="translate(41.263 0) rotate(90)" fill="#fff" stroke="#fff" stroke-width="0.4"/>
      </g>
      <g id="Group_15994" data-name="Group 15994" transform="translate(1469.625 2198.22) rotate(45)">
        <g id="Group_60" data-name="Group 60" transform="translate(0 9.624) rotate(-45)">
          <path id="Path_142" data-name="Path 142" d="M13.6,9.614a3.307,3.307,0,0,0-.461-1.306,7.211,7.211,0,0,0-2.518-2.3,9.012,9.012,0,0,0-2.057-.9A1.972,1.972,0,0,0,7.926,2.6a3.905,3.905,0,0,1,1-2.223A.22.22,0,1,0,8.61.065a3.544,3.544,0,0,0-.764,1.168,5.842,5.842,0,0,0-.329,1.148,1.971,1.971,0,0,0-1.425,0,5.842,5.842,0,0,0-.329-1.148A3.544,3.544,0,0,0,5,.065a.22.22,0,1,0-.313.311,3.905,3.905,0,0,1,1,2.223,1.971,1.971,0,0,0-.638,2.512,9.012,9.012,0,0,0-2.058.9,7.214,7.214,0,0,0-2.516,2.3v0A3.307,3.307,0,0,0,.01,9.614a1.7,1.7,0,0,0,.2,1.027,1.526,1.526,0,0,0,1.375.732,2.577,2.577,0,0,0,1.4-.456,4.128,4.128,0,0,0,1.282-1.41l.04-.063a5.838,5.838,0,0,0,.243,2.037A3,3,0,0,0,6.585,13.5v.932a.22.22,0,0,0,.441,0V13.5a3,3,0,0,0,2.036-2.023,5.837,5.837,0,0,0,.243-2.036l.04.063a4.128,4.128,0,0,0,1.282,1.41,2.578,2.578,0,0,0,1.4.456,1.526,1.526,0,0,0,1.375-.732A1.7,1.7,0,0,0,13.6,9.614ZM5.275,4.22A1.532,1.532,0,0,1,6.024,2.9l.026-.015a1.528,1.528,0,0,1,1.511,0l.026.015A1.53,1.53,0,0,1,8.124,5a6.068,6.068,0,0,0-1.318-.154A6.066,6.066,0,0,0,5.487,5,1.526,1.526,0,0,1,5.275,4.22ZM8.869,9.781H4.742q0-.343.028-.717H8.842Q8.872,9.438,8.869,9.781ZM6.806,13.108a2.731,2.731,0,0,1-1.079-.569H7.884A2.731,2.731,0,0,1,6.806,13.108ZM5.337,12.1a2.957,2.957,0,0,1-.356-.717H8.63a2.958,2.958,0,0,1-.356.717Zm-.479-1.158a5.116,5.116,0,0,1-.1-.717H8.853a5.116,5.116,0,0,1-.1.717ZM4.823,8.623l.452-.717h3.06l.452.717Zm.731-1.158.452-.717h1.6l.452.717Zm.731-1.158.521-.827.521.827Zm-4.7,4.625a1.1,1.1,0,0,1-.993-.512A1.938,1.938,0,0,1,.853,8.528h0A6.868,6.868,0,0,1,3.213,6.39,7.676,7.676,0,0,1,6.4,5.3L3.894,9.27v0l-.067.107a.222.222,0,0,0-.018.035A2.812,2.812,0,0,1,1.58,10.932Zm11.443-.512a1.1,1.1,0,0,1-.993.512A2.812,2.812,0,0,1,9.8,9.414a.22.22,0,0,0-.018-.035l-.068-.107v0L7.215,5.3A7.676,7.676,0,0,1,10.4,6.39a6.869,6.869,0,0,1,2.36,2.138A1.938,1.938,0,0,1,13.024,10.42Z" transform="translate(0 0)" fill="#fff" stroke="#fff" stroke-width="0.2"/>
          <path id="Path_143" data-name="Path 143" d="M1.779.088A.22.22,0,0,0,1.47.045,9.736,9.736,0,0,0,.055,1.354a.22.22,0,0,0,.331.291A9.285,9.285,0,0,1,1.736.4.22.22,0,0,0,1.779.088Z" transform="translate(2.049 6.47)" fill="#fff" stroke="#fff" stroke-width="0.2"/>
          <path id="Path_144" data-name="Path 144" d="M.353.045A.22.22,0,1,0,.088.4a9.29,9.29,0,0,1,1.35,1.249.22.22,0,0,0,.331-.291A9.74,9.74,0,0,0,.353.045Z" transform="translate(9.739 6.47)" fill="#fff" stroke="#fff" stroke-width="0.2"/>
        </g>
        <path id="Ellipse_1" data-name="Ellipse 1" d="M9.222.486a8.738,8.738,0,0,0-3.4,16.785,8.738,8.738,0,0,0,6.8-16.1,8.681,8.681,0,0,0-3.4-.686m0-.486A9.222,9.222,0,1,1,0,9.222,9.222,9.222,0,0,1,9.222,0Z" transform="translate(0.771 0.772)" fill="#fff" stroke="#fff" stroke-width="0.6"/>
        <path id="Rectangle_76" data-name="Rectangle 76" d="M.486.486V3.374H6.758A1.385,1.385,0,0,0,8.142,1.991V1.87A1.385,1.385,0,0,0,6.758.486H.486M0,0H6.758a1.87,1.87,0,0,1,1.87,1.87v.121a1.87,1.87,0,0,1-1.87,1.87H0Z" transform="translate(17.435 14.936) rotate(47)" fill="#fff" stroke="#fff" stroke-width="0.6"/>
      </g>
    </g>
  </g>
</svg>
