<svg xmlns="http://www.w3.org/2000/svg" xmlns:xlink="http://www.w3.org/1999/xlink" width="73" height="73" viewBox="0 0 73 73">
  <defs>
    <linearGradient id="linear-gradient" x1="1.126" y1="-0.258" x2="-0.292" y2="1.294" gradientUnits="objectBoundingBox">
      <stop offset="0" stop-color="#afcd87"/>
      <stop offset="1" stop-color="#004d74"/>
    </linearGradient>
  </defs>
  <g id="Objectives-4" transform="translate(-766.905 -2145)">
    <rect id="Rectangle_4054" data-name="Rectangle 4054" width="73" height="73" rx="10" transform="translate(766.905 2145)" fill="url(#linear-gradient)"/>
    <path id="Path_47471" data-name="Path 47471" d="M48.792,40.177v7.037a.731.731,0,0,1-.731.731H41.024a.731.731,0,0,1,0-1.462H47.33V40.177a.731.731,0,1,1,1.462,0ZM23.4,46.483H17.094V40.177a.731.731,0,1,0-1.462,0v7.037a.731.731,0,0,0,.731.731H23.4a.731.731,0,0,0,0-1.462ZM41.024,16.247H47.33v6.305a.731.731,0,1,0,1.462,0V15.516a.731.731,0,0,0-.731-.731H41.024a.731.731,0,0,0,0,1.462ZM16.363,23.284a.731.731,0,0,0,.731-.731V16.247H23.4a.731.731,0,0,0,0-1.462H16.363a.731.731,0,0,0-.731.731v7.037a.731.731,0,0,0,.731.731Zm13.98,2.551A2.829,2.829,0,1,1,27.517,23,2.831,2.831,0,0,1,30.343,25.835Zm-1.462,0A1.367,1.367,0,1,0,27.517,27.2a1.368,1.368,0,0,0,1.364-1.364ZM12.359,36.659a.731.731,0,0,0,.731-.731v-.505a.731.731,0,0,0-1.462,0v.505A.731.731,0,0,0,12.359,36.659Zm.809,5.835-.078.078v-4.5a.731.731,0,0,0-1.462,0v4.5l-.08-.08a.732.732,0,0,0-1.033,1.037l1.33,1.328a.728.728,0,0,0,1.033,0L14.2,43.531A.732.732,0,0,0,13.17,42.5Zm-.809-16.423a.731.731,0,0,0-.731.731v.505a.731.731,0,0,0,1.462,0V26.8A.731.731,0,0,0,12.359,26.071Zm-1.33-5.62a.728.728,0,0,0,.516-.215l.08-.08v4.5a.731.731,0,0,0,1.462,0v-4.5l.078.078A.732.732,0,0,0,14.2,19.2l-1.328-1.328a.728.728,0,0,0-1.033,0L10.511,19.2a.731.731,0,0,0,.516,1.249ZM51.341,35.425v.505a.731.731,0,0,0,1.462,0v-.505a.731.731,0,1,0-1.462,0Zm1.54,7.071-.078.078v-4.5a.731.731,0,0,0-1.462,0v4.5l-.08-.08a.732.732,0,1,0-1.033,1.037l1.33,1.328a.728.728,0,0,0,1.033,0l1.328-1.328A.732.732,0,0,0,52.883,42.5Zm-.809-16.423a.731.731,0,0,0-.731.731v.505a.731.731,0,1,0,1.462,0V26.8A.731.731,0,0,0,52.072,26.073Zm-1.33-5.62a.728.728,0,0,0,.516-.215l.08-.08v4.5a.731.731,0,0,0,1.462,0v-4.5l.078.078A.732.732,0,1,0,53.913,19.2l-1.328-1.328a.728.728,0,0,0-1.033,0L50.224,19.2a.731.731,0,0,0,.516,1.249Zm-11.846,26v1.531a.731.731,0,0,1-.425.664l-.933.429-.245.59.356.965a.734.734,0,0,1-.169.77l-1.08,1.08a.733.733,0,0,1-.77.169l-.965-.356-.59.245-.429.933a.73.73,0,0,1-.664.425H31.45a.732.732,0,0,1-.664-.423l-.432-.933-.59-.245-.965.356a.735.735,0,0,1-.77-.169L26.947,51.4a.732.732,0,0,1-.169-.772l.356-.965-.245-.59-.935-.429a.73.73,0,0,1-.425-.664V46.452a.73.73,0,0,1,.425-.664l.935-.432.245-.588-.306-.826H23.133a3.5,3.5,0,0,1-3.492-3.5V32.1H14.6a2.354,2.354,0,1,1,0-1.462h5.048V22.291A3.5,3.5,0,0,1,23.135,18.8H41.293a3.5,3.5,0,0,1,3.5,3.492v8.347h5.043a2.356,2.356,0,1,1,0,1.462H44.79v8.347a3.5,3.5,0,0,1-3.5,3.5H37.6l-.3.824.245.59.933.432a.734.734,0,0,1,.425.664ZM51.178,31.368a.894.894,0,1,0,.894-.892A.9.9,0,0,0,51.178,31.368Zm-37.928,0a.893.893,0,1,0-.892.894A.893.893,0,0,0,13.25,31.368Zm30.075,9.08V36.928L37.643,32.1H31.478l-2.193,2.631L38.4,42.479h2.889a2.035,2.035,0,0,0,2.033-2.033ZM28.172,33.785l1.4-1.685H26.189ZM32.7,30.637h3.226l-1.889-1.605ZM43.326,32.1H39.9l3.423,2.909ZM21.1,30.637h9.689l2.319-2.783a1.149,1.149,0,0,1,1.631-.137L38.18,30.64h5.145V22.293a2.035,2.035,0,0,0-2.033-2.03H23.135a2.033,2.033,0,0,0-2.03,2.03V30.64Zm0,1.462v4.071l3.349-4.022.046-.05Zm2.03,10.381H27.5l.529-.529a.733.733,0,0,1,.77-.169l.965.356.588-.243.432-.935a.734.734,0,0,1,.664-.425h1.531a.731.731,0,0,1,.664.425l.429.933.59.243.751-.275L25.374,33.327,21.1,38.455v1.991a2.033,2.033,0,0,0,2.03,2.033Zm14.3,4.44-.768-.356a.741.741,0,0,1-.369-.384l-.464-1.117a.731.731,0,0,1-.011-.534l.293-.8-.421-.421-.794.293a.737.737,0,0,1-.531-.011l-1.119-.46a.733.733,0,0,1-.386-.371L32.508,42h-.594l-.356.77a.733.733,0,0,1-.384.369l-1.117.462a.737.737,0,0,1-.531.011l-.794-.293-.421.421.293.794a.731.731,0,0,1-.011.534l-.464,1.117a.741.741,0,0,1-.369.384l-.77.356v.594l.768.354a.733.733,0,0,1,.369.384l.464,1.119a.731.731,0,0,1,.011.534l-.293.794.421.419.8-.293a.742.742,0,0,1,.534.011l1.117.464a.741.741,0,0,1,.384.369l.356.768h.6l.354-.768a.733.733,0,0,1,.384-.369l1.119-.464a.731.731,0,0,1,.534-.011l.794.293.419-.419-.293-.794a.736.736,0,0,1,.011-.531l.464-1.119a.733.733,0,0,1,.369-.384l.768-.354v-.6Zm-2.069.3a3.151,3.151,0,1,1-3.152-3.152A3.156,3.156,0,0,1,35.363,47.218Zm-1.462,0a1.687,1.687,0,1,0-1.688,1.688A1.69,1.69,0,0,0,33.9,47.218Z" transform="translate(771.19 2148.158)" fill="#fff"/>
  </g>
</svg>
