<svg xmlns="http://www.w3.org/2000/svg" xmlns:xlink="http://www.w3.org/1999/xlink" width="73" height="73" viewBox="0 0 73 73">
  <defs>
    <linearGradient id="linear-gradient" x1="1.126" y1="-0.258" x2="-0.292" y2="1.294" gradientUnits="objectBoundingBox">
      <stop offset="0" stop-color="#afcd87"/>
      <stop offset="1" stop-color="#004d74"/>
    </linearGradient>
  </defs>
  <g id="Objectives-3" transform="translate(-112.095 -1975)">
    <rect id="Rectangle_4052" data-name="Rectangle 4052" width="73" height="73" rx="10" transform="translate(112.095 1975)" fill="url(#linear-gradient)"/>
    <g id="Group_15989" data-name="Group 15989" transform="translate(127.892 1990.797)">
      <path id="Path_47458" data-name="Path 47458" d="M53.152,46.811a5.07,5.07,0,0,0-1.4-2.352.644.644,0,0,0-.75-.1l-.451.286a4.239,4.239,0,0,0-.6-.337v-.5a.639.639,0,0,0-.47-.617,5.411,5.411,0,0,0-1.455-.184,5.262,5.262,0,0,0-1.322.184.633.633,0,0,0-.47.617v.5a3.744,3.744,0,0,0-.572.324l-.483-.267a.645.645,0,0,0-.75.1,5.061,5.061,0,0,0-1.4,2.352.633.633,0,0,0,.305.718l.458.254c-.006.1-.013.2-.013.305a2.45,2.45,0,0,0,.013.305l-.458.254a.633.633,0,0,0-.305.718,5.07,5.07,0,0,0,1.4,2.352.645.645,0,0,0,.75.1l.451-.286a4.24,4.24,0,0,0,.6.337v.5a.639.639,0,0,0,.47.617,5.474,5.474,0,0,0,1.392.184h.064a5.262,5.262,0,0,0,1.322-.184.633.633,0,0,0,.47-.617v-.5a3.744,3.744,0,0,0,.572-.324l.483.267a.645.645,0,0,0,.75-.1,5.061,5.061,0,0,0,1.4-2.352.633.633,0,0,0-.305-.718l-.458-.254c.006-.1.013-.2.013-.305a2.449,2.449,0,0,0-.013-.305l.458-.254A.633.633,0,0,0,53.152,46.811Zm-2.072.75a2.656,2.656,0,0,1,.051.534,3.216,3.216,0,0,1-.051.534.636.636,0,0,0,.318.674l.369.21a3.9,3.9,0,0,1-.578.96l-.044-.025a1.248,1.248,0,0,0-1.3.044,3.447,3.447,0,0,1-.451.254,1.215,1.215,0,0,0-.705,1.106v.019a3.951,3.951,0,0,1-.54.044,4.359,4.359,0,0,1-.642-.044v-.025a1.215,1.215,0,0,0-.706-1.106,2.844,2.844,0,0,1-.451-.254,1.262,1.262,0,0,0-1.3-.044l-.051.025a3.9,3.9,0,0,1-.578-.96l.375-.21a.636.636,0,0,0,.318-.674,2.554,2.554,0,0,1-.051-.528,3.083,3.083,0,0,1,.051-.528.636.636,0,0,0-.318-.674l-.369-.21a3.9,3.9,0,0,1,.578-.96l.044.025a1.248,1.248,0,0,0,1.3-.044,3.448,3.448,0,0,1,.451-.254,1.215,1.215,0,0,0,.706-1.106v-.019a3.952,3.952,0,0,1,.54-.044,4.421,4.421,0,0,1,.642.044v.025a1.215,1.215,0,0,0,.706,1.106,2.844,2.844,0,0,1,.451.254,1.262,1.262,0,0,0,1.3.044l.051-.025a3.9,3.9,0,0,1,.578.96l-.375.21a.636.636,0,0,0-.318.674Z" transform="translate(-15.307 -15.309)" fill="#fff" stroke="#fff" stroke-width="0.1"/>
      <path id="Path_47459" data-name="Path 47459" d="M49.725,47.5a2.225,2.225,0,1,0,2.225,2.225A2.227,2.227,0,0,0,49.725,47.5Zm0,3.178a.953.953,0,1,1,.953-.953A.952.952,0,0,1,49.725,50.678Z" transform="translate(-16.945 -16.945)" fill="#fff" stroke="#fff" stroke-width="0.1"/>
      <path id="Path_47460" data-name="Path 47460" d="M46.423,32.441H40.7V21H39.432v6.356H31.8v1.271h7.627v3.814h-5.72a1.275,1.275,0,0,0-1.271,1.271v5.72H21V40.7H32.441v5.72a1.275,1.275,0,0,0,1.271,1.271H46.423a1.275,1.275,0,0,0,1.271-1.271V33.712A1.275,1.275,0,0,0,46.423,32.441ZM33.712,46.423V33.712H46.423V46.423Z" transform="translate(-7.288 -7.288)" fill="#fff" stroke="#fff" stroke-width="0.1"/>
      <path id="Path_47461" data-name="Path 47461" d="M14.977,10.814A2.47,2.47,0,0,0,12.491,8.36a1.319,1.319,0,0,0-.273.019,2.959,2.959,0,0,0-5.25.483,2.011,2.011,0,0,0-1.583,1.869,1.992,1.992,0,0,0,.636,3.89h7.4a2.013,2.013,0,0,0,2.021-2,1.965,1.965,0,0,0-.515-1.328,2.507,2.507,0,0,0,.051-.489Zm-1.557,2.542H12.244a.738.738,0,0,1,.712-.547V11.538a2.01,2.01,0,0,0-2,1.818H6.021a.725.725,0,1,1-.032-1.449.238.238,0,0,1,.064.006.74.74,0,0,1,.725.718H8.049A1.993,1.993,0,0,0,6.676,10.75a.734.734,0,0,1,.712-.661h.051a.647.647,0,0,0,.648-.508,1.68,1.68,0,0,1,3.2-.242c.006.025.025.038.038.057a1.206,1.206,0,0,1-1.138.782v1.271a2.48,2.48,0,0,0,2.39-1.811,1.173,1.173,0,0,1,1.049,1.621.647.647,0,0,0,.229.775.712.712,0,0,1,.324.6.738.738,0,0,1-.75.725Z" transform="translate(-1.093 -2.186)" fill="#fff" stroke="#fff" stroke-width="0.1"/>
      <path id="Path_47462" data-name="Path 47462" d="M2.271,16.254h5.72V27.695H9.263V21.339H16.89V20.068H9.263V16.254h5.72a1.275,1.275,0,0,0,1.271-1.271V9.263H27.695V7.991H16.254V2.271A1.275,1.275,0,0,0,14.983,1H2.271A1.275,1.275,0,0,0,1,2.271V14.983A1.275,1.275,0,0,0,2.271,16.254Zm0-13.983H14.983V14.983H2.271Z" fill="#fff" stroke="#fff" stroke-width="0.1"/>
      <path id="Path_47463" data-name="Path 47463" d="M27.636,27a.637.637,0,0,0-.636.636V32.72a.637.637,0,0,0,.636.636H32.72a.637.637,0,0,0,.636-.636V27.636A.637.637,0,0,0,32.72,27Zm4.449,5.085H28.271V28.271h3.814Z" transform="translate(-9.475 -9.475)" fill="#fff" stroke="#fff" stroke-width="0.1"/>
      <path id="Path_47464" data-name="Path 47464" d="M45.271,6A1.275,1.275,0,0,0,44,7.271v6.356A1.275,1.275,0,0,0,45.271,14.9h6.356A1.275,1.275,0,0,0,52.9,13.627V7.271A1.275,1.275,0,0,0,51.627,6Zm0,7.627V7.271h6.356v6.356Z" transform="translate(-15.67 -1.822)" fill="#fff" stroke="#fff" stroke-width="0.1"/>
      <path id="Path_47465" data-name="Path 47465" d="M13.627,44H7.271A1.275,1.275,0,0,0,6,45.271v6.356A1.275,1.275,0,0,0,7.271,52.9h6.356A1.275,1.275,0,0,0,14.9,51.627V45.271A1.275,1.275,0,0,0,13.627,44ZM7.271,51.627V45.271h6.356v6.356Z" transform="translate(-1.822 -15.67)" fill="#fff" stroke="#fff" stroke-width="0.1"/>
    </g>
  </g>
</svg>
