<svg id="youtube-social_media" data-name="youtube-social media" xmlns="http://www.w3.org/2000/svg" width="37" height="37" viewBox="0 0 37 37">
  <g id="Ellipse_11" data-name="Ellipse 11" fill="none" stroke="#fff" stroke-width="1" opacity="0.7">
    <circle cx="18.5" cy="18.5" r="18.5" stroke="none"/>
    <circle cx="18.5" cy="18.5" r="18" fill="none"/>
  </g>
  <path id="youtube-svgrepo-com" d="M7.358,13.306V8.632l4.176,2.337Zm9.288-6.146a2,2,0,0,0-1.4-1.4l-.014,0a46.67,46.67,0,0,0-5.665-.334q-.3,0-.607,0h.031c-.172,0-.373,0-.576,0a48.754,48.754,0,0,0-5.9.357l.231-.023A2,2,0,0,0,1.342,7.146l0,.014A19.8,19.8,0,0,0,1,10.838c0,.046,0,.092,0,.138v-.007c0,.039,0,.085,0,.131A20.5,20.5,0,0,0,1.359,14.9l-.02-.128a2,2,0,0,0,1.4,1.4l.014,0a46.67,46.67,0,0,0,5.665.334q.3,0,.607,0H8.992c.172,0,.374,0,.576,0a48.747,48.747,0,0,0,5.9-.357l-.231.023a2,2,0,0,0,1.409-1.385l0-.014a19.844,19.844,0,0,0,.334-3.677c0-.046,0-.092,0-.138v.007c0-.039,0-.085,0-.131a20.5,20.5,0,0,0-.355-3.805l.02.128Z" transform="translate(9.508 7.531)" fill="#fff"/>
</svg>
